<svg width="2160" height="720" fill="none" xmlns="http://www.w3.org/2000/svg">
    <rect width="2160" height="720" fill="#D9D9D9" />
    <path d="M88.4545 102.091V137H84.2273V102.091H88.4545ZM96.3849 137V110.818H100.271V114.909H100.612C101.158 113.511 102.038 112.426 103.254 111.653C104.47 110.869 105.93 110.477 107.635 110.477C109.362 110.477 110.8 110.869 111.947 111.653C113.107 112.426 114.01 113.511 114.658 114.909H114.93C115.601 113.557 116.607 112.483 117.947 111.688C119.288 110.881 120.896 110.477 122.771 110.477C125.112 110.477 127.027 111.21 128.516 112.676C130.004 114.131 130.749 116.398 130.749 119.477V137H126.726V119.477C126.726 117.545 126.197 116.165 125.141 115.335C124.084 114.506 122.839 114.091 121.408 114.091C119.567 114.091 118.141 114.648 117.129 115.761C116.118 116.864 115.612 118.261 115.612 119.955V137H111.521V119.068C111.521 117.58 111.038 116.381 110.072 115.472C109.107 114.551 107.862 114.091 106.339 114.091C105.294 114.091 104.317 114.369 103.408 114.926C102.51 115.483 101.783 116.256 101.226 117.244C100.68 118.222 100.408 119.352 100.408 120.636V137H96.3849ZM145.808 137.614C144.149 137.614 142.643 137.301 141.291 136.676C139.939 136.04 138.865 135.125 138.07 133.932C137.274 132.727 136.876 131.273 136.876 129.568C136.876 128.068 137.172 126.852 137.763 125.92C138.354 124.977 139.143 124.239 140.132 123.705C141.121 123.17 142.212 122.773 143.405 122.511C144.609 122.239 145.82 122.023 147.036 121.864C148.626 121.659 149.916 121.506 150.905 121.403C151.905 121.29 152.632 121.102 153.087 120.841C153.553 120.58 153.786 120.125 153.786 119.477V119.341C153.786 117.659 153.325 116.352 152.405 115.42C151.496 114.489 150.115 114.023 148.263 114.023C146.342 114.023 144.837 114.443 143.746 115.284C142.655 116.125 141.888 117.023 141.445 117.977L137.626 116.614C138.308 115.023 139.217 113.784 140.354 112.898C141.501 112 142.751 111.375 144.104 111.023C145.467 110.659 146.808 110.477 148.126 110.477C148.967 110.477 149.933 110.58 151.024 110.784C152.126 110.977 153.189 111.381 154.212 111.994C155.246 112.608 156.104 113.534 156.786 114.773C157.467 116.011 157.808 117.67 157.808 119.75V137H153.786V133.455H153.581C153.308 134.023 152.854 134.631 152.217 135.278C151.581 135.926 150.734 136.477 149.678 136.932C148.621 137.386 147.331 137.614 145.808 137.614ZM146.422 134C148.013 134 149.354 133.688 150.445 133.062C151.547 132.438 152.376 131.631 152.933 130.642C153.501 129.653 153.786 128.614 153.786 127.523V123.841C153.615 124.045 153.24 124.233 152.661 124.403C152.092 124.562 151.433 124.705 150.683 124.83C149.945 124.943 149.223 125.045 148.518 125.136C147.825 125.216 147.263 125.284 146.831 125.341C145.786 125.477 144.808 125.699 143.899 126.006C143.001 126.301 142.274 126.75 141.717 127.352C141.172 127.943 140.899 128.75 140.899 129.773C140.899 131.17 141.416 132.227 142.45 132.943C143.496 133.648 144.82 134 146.422 134ZM175.719 147.364C173.776 147.364 172.105 147.114 170.707 146.614C169.31 146.125 168.145 145.477 167.213 144.67C166.293 143.875 165.56 143.023 165.014 142.114L168.219 139.864C168.582 140.341 169.043 140.886 169.599 141.5C170.156 142.125 170.918 142.665 171.884 143.119C172.861 143.585 174.139 143.818 175.719 143.818C177.832 143.818 179.577 143.307 180.952 142.284C182.327 141.261 183.014 139.659 183.014 137.477V132.159H182.673C182.378 132.636 181.957 133.227 181.412 133.932C180.878 134.625 180.105 135.244 179.094 135.79C178.094 136.324 176.741 136.591 175.037 136.591C172.923 136.591 171.026 136.091 169.344 135.091C167.673 134.091 166.349 132.636 165.372 130.727C164.406 128.818 163.923 126.5 163.923 123.773C163.923 121.091 164.395 118.756 165.338 116.767C166.281 114.767 167.594 113.222 169.276 112.131C170.957 111.028 172.901 110.477 175.105 110.477C176.81 110.477 178.162 110.761 179.162 111.33C180.173 111.886 180.946 112.523 181.48 113.239C182.026 113.943 182.446 114.523 182.741 114.977H183.151V110.818H187.037V137.75C187.037 140 186.526 141.83 185.503 143.239C184.491 144.659 183.128 145.699 181.412 146.358C179.707 147.028 177.81 147.364 175.719 147.364ZM175.582 132.977C177.196 132.977 178.56 132.608 179.673 131.869C180.787 131.131 181.634 130.068 182.213 128.682C182.793 127.295 183.082 125.636 183.082 123.705C183.082 121.818 182.798 120.153 182.23 118.71C181.662 117.267 180.821 116.136 179.707 115.318C178.594 114.5 177.219 114.091 175.582 114.091C173.878 114.091 172.457 114.523 171.321 115.386C170.196 116.25 169.349 117.409 168.781 118.864C168.224 120.318 167.946 121.932 167.946 123.705C167.946 125.523 168.23 127.131 168.798 128.528C169.378 129.915 170.23 131.006 171.355 131.801C172.491 132.585 173.901 132.977 175.582 132.977ZM205.378 137.545C202.855 137.545 200.679 136.989 198.849 135.875C197.031 134.75 195.628 133.182 194.639 131.17C193.662 129.148 193.173 126.795 193.173 124.114C193.173 121.432 193.662 119.068 194.639 117.023C195.628 114.966 197.003 113.364 198.764 112.216C200.537 111.057 202.605 110.477 204.969 110.477C206.332 110.477 207.679 110.705 209.009 111.159C210.338 111.614 211.548 112.352 212.639 113.375C213.73 114.386 214.599 115.727 215.247 117.398C215.895 119.068 216.219 121.125 216.219 123.568V125.273H196.037V121.795H212.128C212.128 120.318 211.832 119 211.241 117.841C210.662 116.682 209.832 115.767 208.753 115.097C207.685 114.426 206.423 114.091 204.969 114.091C203.366 114.091 201.98 114.489 200.81 115.284C199.651 116.068 198.759 117.091 198.134 118.352C197.509 119.614 197.196 120.966 197.196 122.409V124.727C197.196 126.705 197.537 128.381 198.219 129.756C198.912 131.119 199.872 132.159 201.099 132.875C202.327 133.58 203.753 133.932 205.378 133.932C206.435 133.932 207.389 133.784 208.241 133.489C209.105 133.182 209.849 132.727 210.474 132.125C211.099 131.511 211.582 130.75 211.923 129.841L215.81 130.932C215.401 132.25 214.713 133.409 213.747 134.409C212.781 135.398 211.588 136.17 210.168 136.727C208.747 137.273 207.151 137.545 205.378 137.545ZM222.338 137V110.818H226.224V114.909H226.565C227.111 113.511 227.991 112.426 229.207 111.653C230.423 110.869 231.884 110.477 233.588 110.477C235.315 110.477 236.753 110.869 237.901 111.653C239.06 112.426 239.963 113.511 240.611 114.909H240.884C241.554 113.557 242.56 112.483 243.901 111.688C245.241 110.881 246.849 110.477 248.724 110.477C251.065 110.477 252.98 111.21 254.469 112.676C255.957 114.131 256.702 116.398 256.702 119.477V137H252.679V119.477C252.679 117.545 252.151 116.165 251.094 115.335C250.037 114.506 248.793 114.091 247.361 114.091C245.52 114.091 244.094 114.648 243.082 115.761C242.071 116.864 241.565 118.261 241.565 119.955V137H237.474V119.068C237.474 117.58 236.991 116.381 236.026 115.472C235.06 114.551 233.815 114.091 232.293 114.091C231.247 114.091 230.27 114.369 229.361 114.926C228.463 115.483 227.736 116.256 227.179 117.244C226.634 118.222 226.361 119.352 226.361 120.636V137H222.338ZM278.102 137V102.091H289.898C292.625 102.091 294.864 102.557 296.614 103.489C298.364 104.409 299.659 105.676 300.5 107.29C301.341 108.903 301.761 110.739 301.761 112.795C301.761 114.852 301.341 116.676 300.5 118.267C299.659 119.858 298.369 121.108 296.631 122.017C294.892 122.915 292.67 123.364 289.966 123.364H280.42V119.545H289.83C291.693 119.545 293.193 119.273 294.33 118.727C295.477 118.182 296.307 117.409 296.818 116.409C297.341 115.398 297.602 114.193 297.602 112.795C297.602 111.398 297.341 110.176 296.818 109.131C296.295 108.085 295.46 107.278 294.312 106.71C293.165 106.131 291.648 105.841 289.761 105.841H282.33V137H278.102ZM294.534 121.318L303.125 137H298.216L289.761 121.318H294.534ZM318.956 137.545C316.433 137.545 314.257 136.989 312.428 135.875C310.609 134.75 309.206 133.182 308.217 131.17C307.24 129.148 306.751 126.795 306.751 124.114C306.751 121.432 307.24 119.068 308.217 117.023C309.206 114.966 310.581 113.364 312.342 112.216C314.115 111.057 316.183 110.477 318.547 110.477C319.911 110.477 321.257 110.705 322.587 111.159C323.916 111.614 325.126 112.352 326.217 113.375C327.308 114.386 328.178 115.727 328.825 117.398C329.473 119.068 329.797 121.125 329.797 123.568V125.273H309.615V121.795H325.706C325.706 120.318 325.411 119 324.82 117.841C324.24 116.682 323.411 115.767 322.331 115.097C321.263 114.426 320.001 114.091 318.547 114.091C316.945 114.091 315.558 114.489 314.388 115.284C313.229 116.068 312.337 117.091 311.712 118.352C311.087 119.614 310.774 120.966 310.774 122.409V124.727C310.774 126.705 311.115 128.381 311.797 129.756C312.49 131.119 313.45 132.159 314.678 132.875C315.905 133.58 317.331 133.932 318.956 133.932C320.013 133.932 320.967 133.784 321.82 133.489C322.683 133.182 323.428 132.727 324.053 132.125C324.678 131.511 325.161 130.75 325.501 129.841L329.388 130.932C328.979 132.25 328.291 133.409 327.325 134.409C326.359 135.398 325.166 136.17 323.746 136.727C322.325 137.273 320.729 137.545 318.956 137.545ZM354.462 116.682L350.848 117.705C350.621 117.102 350.286 116.517 349.842 115.949C349.411 115.369 348.82 114.892 348.07 114.517C347.32 114.142 346.359 113.955 345.189 113.955C343.587 113.955 342.251 114.324 341.183 115.062C340.126 115.79 339.598 116.716 339.598 117.841C339.598 118.841 339.962 119.631 340.689 120.21C341.416 120.79 342.553 121.273 344.098 121.659L347.984 122.614C350.325 123.182 352.07 124.051 353.217 125.222C354.365 126.381 354.939 127.875 354.939 129.705C354.939 131.205 354.507 132.545 353.643 133.727C352.791 134.909 351.598 135.841 350.064 136.523C348.53 137.205 346.746 137.545 344.712 137.545C342.041 137.545 339.831 136.966 338.081 135.807C336.331 134.648 335.223 132.955 334.757 130.727L338.575 129.773C338.939 131.182 339.626 132.239 340.638 132.943C341.661 133.648 342.996 134 344.643 134C346.518 134 348.007 133.602 349.109 132.807C350.223 132 350.78 131.034 350.78 129.909C350.78 129 350.462 128.239 349.825 127.625C349.189 127 348.212 126.534 346.893 126.227L342.53 125.205C340.132 124.636 338.371 123.756 337.246 122.562C336.132 121.358 335.575 119.852 335.575 118.045C335.575 116.568 335.99 115.261 336.82 114.125C337.661 112.989 338.803 112.097 340.246 111.449C341.7 110.801 343.348 110.477 345.189 110.477C347.78 110.477 349.814 111.045 351.291 112.182C352.78 113.318 353.837 114.818 354.462 116.682ZM360.994 146.818V110.818H364.881V114.977H365.358C365.653 114.523 366.063 113.943 366.585 113.239C367.119 112.523 367.881 111.886 368.869 111.33C369.869 110.761 371.222 110.477 372.926 110.477C375.131 110.477 377.074 111.028 378.756 112.131C380.438 113.233 381.75 114.795 382.693 116.818C383.636 118.841 384.108 121.227 384.108 123.977C384.108 126.75 383.636 129.153 382.693 131.188C381.75 133.21 380.443 134.778 378.773 135.892C377.102 136.994 375.176 137.545 372.994 137.545C371.313 137.545 369.966 137.267 368.955 136.71C367.943 136.142 367.165 135.5 366.619 134.784C366.074 134.057 365.653 133.455 365.358 132.977H365.017V146.818H360.994ZM364.949 123.909C364.949 125.886 365.239 127.631 365.818 129.142C366.398 130.642 367.244 131.818 368.358 132.67C369.472 133.511 370.835 133.932 372.449 133.932C374.131 133.932 375.534 133.489 376.659 132.602C377.795 131.705 378.648 130.5 379.216 128.989C379.795 127.466 380.085 125.773 380.085 123.909C380.085 122.068 379.801 120.409 379.233 118.932C378.676 117.443 377.83 116.267 376.693 115.403C375.568 114.528 374.153 114.091 372.449 114.091C370.813 114.091 369.438 114.506 368.324 115.335C367.21 116.153 366.369 117.301 365.801 118.778C365.233 120.244 364.949 121.955 364.949 123.909ZM400.881 137.545C398.517 137.545 396.443 136.983 394.659 135.858C392.886 134.733 391.5 133.159 390.5 131.136C389.511 129.114 389.017 126.75 389.017 124.045C389.017 121.318 389.511 118.937 390.5 116.903C391.5 114.869 392.886 113.29 394.659 112.165C396.443 111.04 398.517 110.477 400.881 110.477C403.244 110.477 405.313 111.04 407.085 112.165C408.869 113.29 410.256 114.869 411.244 116.903C412.244 118.937 412.744 121.318 412.744 124.045C412.744 126.75 412.244 129.114 411.244 131.136C410.256 133.159 408.869 134.733 407.085 135.858C405.313 136.983 403.244 137.545 400.881 137.545ZM400.881 133.932C402.676 133.932 404.153 133.472 405.312 132.551C406.472 131.631 407.33 130.42 407.886 128.92C408.443 127.42 408.722 125.795 408.722 124.045C408.722 122.295 408.443 120.665 407.886 119.153C407.33 117.642 406.472 116.42 405.312 115.489C404.153 114.557 402.676 114.091 400.881 114.091C399.085 114.091 397.608 114.557 396.449 115.489C395.29 116.42 394.432 117.642 393.875 119.153C393.318 120.665 393.04 122.295 393.04 124.045C393.04 125.795 393.318 127.42 393.875 128.92C394.432 130.42 395.29 131.631 396.449 132.551C397.608 133.472 399.085 133.932 400.881 133.932ZM422.908 121.25V137H418.885V110.818H422.771V114.909H423.112C423.726 113.58 424.658 112.511 425.908 111.705C427.158 110.886 428.771 110.477 430.749 110.477C432.521 110.477 434.072 110.841 435.402 111.568C436.732 112.284 437.766 113.375 438.504 114.841C439.243 116.295 439.612 118.136 439.612 120.364V137H435.589V120.636C435.589 118.58 435.055 116.977 433.987 115.83C432.919 114.67 431.453 114.091 429.589 114.091C428.305 114.091 427.158 114.369 426.146 114.926C425.146 115.483 424.357 116.295 423.777 117.364C423.197 118.432 422.908 119.727 422.908 121.25ZM465.509 116.682L461.895 117.705C461.668 117.102 461.332 116.517 460.889 115.949C460.457 115.369 459.866 114.892 459.116 114.517C458.366 114.142 457.406 113.955 456.236 113.955C454.634 113.955 453.298 114.324 452.23 115.062C451.173 115.79 450.645 116.716 450.645 117.841C450.645 118.841 451.009 119.631 451.736 120.21C452.463 120.79 453.599 121.273 455.145 121.659L459.031 122.614C461.372 123.182 463.116 124.051 464.264 125.222C465.412 126.381 465.986 127.875 465.986 129.705C465.986 131.205 465.554 132.545 464.69 133.727C463.838 134.909 462.645 135.841 461.111 136.523C459.577 137.205 457.793 137.545 455.759 137.545C453.088 137.545 450.878 136.966 449.128 135.807C447.378 134.648 446.27 132.955 445.804 130.727L449.622 129.773C449.986 131.182 450.673 132.239 451.685 132.943C452.707 133.648 454.043 134 455.69 134C457.565 134 459.054 133.602 460.156 132.807C461.27 132 461.827 131.034 461.827 129.909C461.827 129 461.509 128.239 460.872 127.625C460.236 127 459.259 126.534 457.94 126.227L453.577 125.205C451.179 124.636 449.418 123.756 448.293 122.562C447.179 121.358 446.622 119.852 446.622 118.045C446.622 116.568 447.037 115.261 447.866 114.125C448.707 112.989 449.849 112.097 451.293 111.449C452.747 110.801 454.395 110.477 456.236 110.477C458.827 110.477 460.861 111.045 462.338 112.182C463.827 113.318 464.884 114.818 465.509 116.682ZM472.041 137V110.818H476.064V137H472.041ZM474.087 106.455C473.303 106.455 472.626 106.188 472.058 105.653C471.501 105.119 471.223 104.477 471.223 103.727C471.223 102.977 471.501 102.335 472.058 101.801C472.626 101.267 473.303 101 474.087 101C474.871 101 475.541 101.267 476.098 101.801C476.666 102.335 476.95 102.977 476.95 103.727C476.95 104.477 476.666 105.119 476.098 105.653C475.541 106.188 474.871 106.455 474.087 106.455ZM504.841 110.818L495.159 137H491.068L481.386 110.818H485.75L492.977 131.682H493.25L500.477 110.818H504.841ZM517.058 137.614C515.399 137.614 513.893 137.301 512.541 136.676C511.189 136.04 510.115 135.125 509.32 133.932C508.524 132.727 508.126 131.273 508.126 129.568C508.126 128.068 508.422 126.852 509.013 125.92C509.604 124.977 510.393 124.239 511.382 123.705C512.371 123.17 513.462 122.773 514.655 122.511C515.859 122.239 517.07 122.023 518.286 121.864C519.876 121.659 521.166 121.506 522.155 121.403C523.155 121.29 523.882 121.102 524.337 120.841C524.803 120.58 525.036 120.125 525.036 119.477V119.341C525.036 117.659 524.575 116.352 523.655 115.42C522.746 114.489 521.365 114.023 519.513 114.023C517.592 114.023 516.087 114.443 514.996 115.284C513.905 116.125 513.138 117.023 512.695 117.977L508.876 116.614C509.558 115.023 510.467 113.784 511.604 112.898C512.751 112 514.001 111.375 515.354 111.023C516.717 110.659 518.058 110.477 519.376 110.477C520.217 110.477 521.183 110.58 522.274 110.784C523.376 110.977 524.439 111.381 525.462 111.994C526.496 112.608 527.354 113.534 528.036 114.773C528.717 116.011 529.058 117.67 529.058 119.75V137H525.036V133.455H524.831C524.558 134.023 524.104 134.631 523.467 135.278C522.831 135.926 521.984 136.477 520.928 136.932C519.871 137.386 518.581 137.614 517.058 137.614ZM517.672 134C519.263 134 520.604 133.688 521.695 133.062C522.797 132.438 523.626 131.631 524.183 130.642C524.751 129.653 525.036 128.614 525.036 127.523V123.841C524.865 124.045 524.49 124.233 523.911 124.403C523.342 124.562 522.683 124.705 521.933 124.83C521.195 124.943 520.473 125.045 519.768 125.136C519.075 125.216 518.513 125.284 518.081 125.341C517.036 125.477 516.058 125.699 515.149 126.006C514.251 126.301 513.524 126.75 512.967 127.352C512.422 127.943 512.149 128.75 512.149 129.773C512.149 131.17 512.666 132.227 513.7 132.943C514.746 133.648 516.07 134 517.672 134Z" fill="black" />
</svg>